<svg xmlns="http://www.w3.org/2000/svg" xmlns:xlink="http://www.w3.org/1999/xlink" preserveAspectRatio="xMidYMid" width="15" height="15" viewBox="0 0 15 15">
  <defs>
    <style>

      .cls-2 {
        fill: #00a2ff;
      }
    </style>
  </defs>
  <path d="M7.502,14.994 C3.362,14.994 0.006,11.639 0.006,7.499 C0.006,3.360 3.362,0.004 7.503,0.004 C11.642,0.004 14.998,3.360 14.998,7.499 C14.998,11.640 11.642,14.995 7.502,14.994 ZM7.503,1.008 C3.923,1.008 1.010,3.920 1.011,7.499 C1.011,11.078 3.924,13.990 7.503,13.990 C11.081,13.990 13.994,11.078 13.994,7.499 C13.994,3.920 11.081,1.008 7.503,1.008 ZM7.570,11.148 C7.374,11.344 7.056,11.344 6.860,11.148 C6.664,10.952 6.664,10.634 6.860,10.438 C6.860,10.438 9.296,8.002 9.296,8.002 C9.296,8.002 4.500,8.002 4.500,8.002 C4.224,8.002 4.000,7.778 4.000,7.502 C4.000,7.225 4.224,7.001 4.500,7.001 C4.500,7.001 9.229,7.001 9.229,7.001 C9.229,7.001 6.860,4.633 6.860,4.633 C6.664,4.436 6.664,4.118 6.860,3.922 C7.056,3.726 7.374,3.726 7.570,3.922 C7.570,3.922 10.826,7.178 10.826,7.178 C11.022,7.374 11.022,7.696 10.826,7.891 C10.826,7.891 7.570,11.148 7.570,11.148 Z" id="path-1" class="cls-2" fill-rule="evenodd"/>
</svg>
